# xmcd
#
# Track frame offsets:
#	150
#	17100
#	24755
#	44183
#	61356
#	76707
#	98766
#	111762
#	133455
#	147752
#
# Disc length: 2297 seconds
#
# Revision: 1
# Processed by: cddbd v1.5.2PL0 Copyright (c) Steve Scherf et al.
# Submitted via: audiograbber 1.83.01
#
DISCID=8208f70a
DTITLE=Kenny Chesney - Life On a Rock
DYEAR=2013
DGENRE=Country
TTITLE0=Pirate Flag
TTITLE1=When I See This Bar
TTITLE2=Spread the Love (feat. The Wailers) [with Elan]
TTITLE3=Lindy
TTITLE4=Coconut Tree (with Willie Nelson)
TTITLE5=Its That Time of Day
TTITLE6=Life On a Rock
TTITLE7=Marley
TTITLE8=Must Be Something I Missed
TTITLE9=Happy On the Hey Now (A Song For Kristie)
EXTD=
EXTT0=
EXTT1=
EXTT2=
EXTT3=
EXTT4=
EXTT5=
EXTT6=
EXTT7=
EXTT8=
EXTT9=
PLAYORDER=
